<svg xmlns="http://www.w3.org/2000/svg" viewBox="0 0 1600 320" width="1600" height="320" preserveAspectRatio="xMidYMid slice" role="img" aria-label="ADUFARMS audit logs banner">
<defs>
  <pattern id="kente" width="176" height="48" patternUnits="userSpaceOnUse" patternTransform="scale(.73)">
    <rect width="176" height="48" fill="#111111"/>
    <rect y="0" width="176" height="7" fill="#FCD116"/><rect y="7" width="176" height="4" fill="#CE1126"/><rect y="11" width="176" height="5" fill="#006B3F"/>
    <rect y="37" width="176" height="5" fill="#006B3F"/><rect y="42" width="176" height="4" fill="#CE1126"/><rect y="46" width="176" height="2" fill="#FCD116"/>
    <g transform="translate(0,16)">
      <polygon points="22,16 44,0 66,16 44,32" fill="#FCD116"/><polygon points="22,16 44,6 66,16 44,26" fill="#CE1126"/><polygon points="36,16 44,10 52,16 44,22" fill="#111111"/>
      <rect x="66" y="6" width="22" height="20" fill="#006B3F"/><rect x="71" y="11" width="12" height="10" fill="#FCD116"/>
      <polygon points="110,16 132,0 154,16 132,32" fill="#FCD116"/><polygon points="110,16 132,6 154,16 132,26" fill="#CE1126"/><polygon points="124,16 132,10 140,16 132,22" fill="#111111"/>
      <rect x="154" y="6" width="22" height="20" fill="#006B3F"/><rect x="159" y="11" width="12" height="10" fill="#FCD116"/>
      <rect x="0" y="6" width="22" height="20" fill="#006B3F"/><rect x="5" y="11" width="12" height="10" fill="#FCD116"/>
      <rect x="88" y="6" width="22" height="20" fill="#CE1126"/><rect x="93" y="11" width="12" height="10" fill="#111111"/>
    </g>
  </pattern>
  <radialGradient id="glow" cx="50%" cy="50%" r="50%"><stop offset="0" stop-color="#fff6c2" stop-opacity=".95"/><stop offset=".35" stop-color="#FCD116" stop-opacity=".55"/><stop offset="1" stop-color="#FCD116" stop-opacity="0"/></radialGradient>
  <linearGradient id="sack" x1="0" y1="0" x2="1" y2="1"><stop offset="0" stop-color="#e9d3a1"/><stop offset="1" stop-color="#c9a96a"/></linearGradient>
  <linearGradient id="cob" x1="0" y1="0" x2="0" y2="1"><stop offset="0" stop-color="#ffd54a"/><stop offset="1" stop-color="#e9a316"/></linearGradient>
  <filter id="soft"><feGaussianBlur stdDeviation="1.2"/></filter>
</defs><defs><linearGradient id="sky" x1="0" y1="0" x2="0" y2="1"><stop offset="0" stop-color="#051b2e"/><stop offset=".55" stop-color="#0f4c5c"/><stop offset="1" stop-color="#1d8a6a"/></linearGradient></defs><rect width="1600" height="320" fill="url(#sky)"/><circle cx="25" cy="120" r="1.2" fill="#fff" opacity="0.67"/><circle cx="288" cy="11" r="1.2" fill="#fff" opacity="0.77"/><circle cx="1096" cy="59" r="2.2" fill="#fff" opacity="0.67"/><circle cx="301" cy="8" r="2.2" fill="#fff" opacity="0.28"/><circle cx="473" cy="137" r="2.2" fill="#fff" opacity="0.50"/><circle cx="844" cy="52" r="2.2" fill="#fff" opacity="0.30"/><circle cx="41" cy="103" r="1.6" fill="#fff" opacity="0.36"/><circle cx="676" cy="100" r="1.6" fill="#fff" opacity="0.58"/><circle cx="504" cy="53" r="2.2" fill="#fff" opacity="0.37"/><circle cx="1197" cy="140" r="1.2" fill="#fff" opacity="0.77"/><circle cx="368" cy="91" r="1.2" fill="#fff" opacity="0.36"/><circle cx="770" cy="7" r="1.2" fill="#fff" opacity="0.65"/><circle cx="898" cy="55" r="1.2" fill="#fff" opacity="0.69"/><circle cx="1494" cy="94" r="1.2" fill="#fff" opacity="0.43"/><circle cx="448" cy="123" r="1.2" fill="#fff" opacity="0.39"/><circle cx="600" cy="85" r="2.2" fill="#fff" opacity="0.47"/><circle cx="1324" cy="80" r="1.2" fill="#fff" opacity="0.79"/><circle cx="195" cy="78" r="1.2" fill="#fff" opacity="0.56"/><circle cx="1117" cy="75" r="1.2" fill="#fff" opacity="0.35"/><circle cx="58" cy="95" r="2.2" fill="#fff" opacity="0.78"/><circle cx="1371" cy="102" r="1.6" fill="#fff" opacity="0.75"/><circle cx="1329" cy="50" r="1.2" fill="#fff" opacity="0.50"/><path d="M-50,320 L-50,244 Q115,249 205,255 Q342,250 432,256 Q594,230 684,236 Q767,247 857,253 Q988,229 1078,235 Q1239,236 1329,242 Q1452,231 1542,237 Q1595,239 1685,245 Q1787,228 1877,234 L1700,320 Z" fill="#0f4f3b" opacity="1.0"/><g transform="translate(1180,172) scale(0.98)"><path d="M0,-110 L86,-76 C86,-10 56,60 0,104 C-56,60 -86,-10 -86,-76 Z" fill="#006B3F" stroke="#FCD116" stroke-width="6"/><path d="M0,-84 L62,-60 C62,-14 42,36 0,72 Z" fill="#0b8a53" opacity=".55"/><path d="M-30,0 L-8,24 L34,-24" stroke="#fff" stroke-width="12" fill="none" stroke-linecap="round" stroke-linejoin="round"/></g><g transform="translate(1400,186) scale(0.8)"><circle cx="0" cy="0" r="54" fill="#cfe9f3" opacity=".35" stroke="#FCD116" stroke-width="10"/><path d="M40,40 L86,86" stroke="#FCD116" stroke-width="16" stroke-linecap="round"/><path d="M-30,-18 A40,40 0 0 1 10,-44" stroke="#fff" stroke-width="6" fill="none" stroke-linecap="round" opacity=".8"/></g><polygon points="1000.0,72.0 1003.6,83.1 1015.2,83.1 1005.8,89.9 1009.4,100.9 1000.0,94.1 990.6,100.9 994.2,89.9 984.8,83.1 996.4,83.1" fill="#FCD116" stroke="#fff3b0" stroke-width="3" stroke-linejoin="round"/><g transform="translate(150,120) scale(0.85)" opacity="0.22"><path d="M0,56 L0,-10 M0,-10 L-38,-44 M0,-10 L38,-44 M-38,-44 C-38,-66 -14,-66 -14,-44 M38,-44 C38,-66 14,-66 14,-44 M-20,56 L20,56" stroke="#FCD116" stroke-width="5" fill="none" stroke-linecap="round" stroke-linejoin="round"/></g><g transform="translate(280,120) scale(0.85)" opacity="0.22"><path d="M-6,-6 C-50,-40 -74,-10 -56,18 C-44,36 -22,28 -26,10 C-28,0 -40,4 -36,14 M6,-6 C50,-40 74,-10 56,18 C44,36 22,28 26,10 C28,0 40,4 36,14 M-56,44 L56,44 M0,-6 L0,44" stroke="#FCD116" stroke-width="5" fill="none" stroke-linecap="round" stroke-linejoin="round"/></g><defs><linearGradient id="shade" x1="0" y1="0" x2="1" y2="0"><stop offset="0" stop-color="#06210f" stop-opacity=".78"/><stop offset=".42" stop-color="#06210f" stop-opacity=".38"/><stop offset=".7" stop-color="#06210f" stop-opacity="0"/></linearGradient></defs><rect width="1600" height="320" fill="url(#shade)"/><g><rect x="0" y="285" width="1600" height="35" fill="url(#kente)"/><rect x="0" y="285" width="1600" height="3" fill="#000" opacity=".35"/></g></svg>