<svg xmlns="http://www.w3.org/2000/svg" viewBox="0 0 1600 320" width="1600" height="320" preserveAspectRatio="xMidYMid slice" role="img" aria-label="ADUFARMS inventory banner">
<defs>
  <pattern id="kente" width="176" height="48" patternUnits="userSpaceOnUse" patternTransform="scale(.73)">
    <rect width="176" height="48" fill="#111111"/>
    <rect y="0" width="176" height="7" fill="#FCD116"/><rect y="7" width="176" height="4" fill="#CE1126"/><rect y="11" width="176" height="5" fill="#006B3F"/>
    <rect y="37" width="176" height="5" fill="#006B3F"/><rect y="42" width="176" height="4" fill="#CE1126"/><rect y="46" width="176" height="2" fill="#FCD116"/>
    <g transform="translate(0,16)">
      <polygon points="22,16 44,0 66,16 44,32" fill="#FCD116"/><polygon points="22,16 44,6 66,16 44,26" fill="#CE1126"/><polygon points="36,16 44,10 52,16 44,22" fill="#111111"/>
      <rect x="66" y="6" width="22" height="20" fill="#006B3F"/><rect x="71" y="11" width="12" height="10" fill="#FCD116"/>
      <polygon points="110,16 132,0 154,16 132,32" fill="#FCD116"/><polygon points="110,16 132,6 154,16 132,26" fill="#CE1126"/><polygon points="124,16 132,10 140,16 132,22" fill="#111111"/>
      <rect x="154" y="6" width="22" height="20" fill="#006B3F"/><rect x="159" y="11" width="12" height="10" fill="#FCD116"/>
      <rect x="0" y="6" width="22" height="20" fill="#006B3F"/><rect x="5" y="11" width="12" height="10" fill="#FCD116"/>
      <rect x="88" y="6" width="22" height="20" fill="#CE1126"/><rect x="93" y="11" width="12" height="10" fill="#111111"/>
    </g>
  </pattern>
  <radialGradient id="glow" cx="50%" cy="50%" r="50%"><stop offset="0" stop-color="#fff6c2" stop-opacity=".95"/><stop offset=".35" stop-color="#FCD116" stop-opacity=".55"/><stop offset="1" stop-color="#FCD116" stop-opacity="0"/></radialGradient>
  <linearGradient id="sack" x1="0" y1="0" x2="1" y2="1"><stop offset="0" stop-color="#e9d3a1"/><stop offset="1" stop-color="#c9a96a"/></linearGradient>
  <linearGradient id="cob" x1="0" y1="0" x2="0" y2="1"><stop offset="0" stop-color="#ffd54a"/><stop offset="1" stop-color="#e9a316"/></linearGradient>
  <filter id="soft"><feGaussianBlur stdDeviation="1.2"/></filter>
</defs><defs><linearGradient id="sky" x1="0" y1="0" x2="0" y2="1"><stop offset="0" stop-color="#14304a"/><stop offset=".55" stop-color="#2d6a6f"/><stop offset="1" stop-color="#f2b350"/></linearGradient></defs><rect width="1600" height="320" fill="url(#sky)"/><circle cx="1270" cy="150" r="102.4" fill="url(#glow)"/><circle cx="1270" cy="150" r="32" fill="#fff3b0"/><circle cx="1270" cy="150" r="26.24" fill="#FCD116"/><path d="M-50,320 L-50,236 Q30,236 120,242 Q239,222 329,228 Q426,237 516,243 Q626,238 716,244 Q840,220 930,226 Q1057,218 1147,224 Q1313,233 1403,239 Q1486,235 1576,241 Q1655,224 1745,230 L1700,320 Z" fill="#1f5c46" opacity="1.0"/><g transform="translate(1140,276) scale(0.62)"><path d="M-230,0 L-230,-150 L0,-215 L230,-150 L230,0 Z" fill="#7b5a3a"/><path d="M-250,-146 L0,-226 L250,-146 L250,-128 L0,-208 L-250,-128 Z" fill="#CE1126"/><rect x="-150" y="-110" width="300" height="110" fill="#3a2a1b"/><rect x="-150" y="-110" width="60" height="110" fill="none" stroke="#5d452c" stroke-width="3"/><rect x="-90" y="-110" width="60" height="110" fill="none" stroke="#5d452c" stroke-width="3"/><rect x="-30" y="-110" width="60" height="110" fill="none" stroke="#5d452c" stroke-width="3"/><rect x="30" y="-110" width="60" height="110" fill="none" stroke="#5d452c" stroke-width="3"/><rect x="90" y="-110" width="60" height="110" fill="none" stroke="#5d452c" stroke-width="3"/><path d="M-200,-150 L0,-204 L200,-150" stroke="#FCD116" stroke-width="4" fill="none"/><circle cx="0" cy="-170" r="13" fill="#FCD116"/></g><g transform="translate(1367.2,276.0) rotate(-1.0570034110010258) scale(0.6)"><path d="M-46,0 C-54,-30 -52,-70 -40,-92 L-22,-102 L-30,-116 Q0,-104 30,-116 L22,-102 L40,-92 C52,-70 54,-30 46,0 Q0,12 -46,0 Z" fill="url(#sack)" stroke="#a68545" stroke-width="2"/><path d="M-30,-116 Q0,-96 30,-116" stroke="#8a6b2f" stroke-width="3" fill="none"/><path d="M-22,-102 Q0,-92 22,-102" stroke="#a68545" stroke-width="2" fill="none" stroke-dasharray="3 4"/><rect x="-26" y="-74" width="52" height="32" rx="4" fill="#fffaf0" opacity=".92"/><path d="M-17,-50 L-10,-66 L0,-52 L10,-66 L17,-50" stroke="#006B3F" stroke-width="3.5" fill="none" stroke-linejoin="round"/><rect x="-26" y="-45" width="52" height="3" fill="#CE1126"/></g><g transform="translate(1422.4,276.0) rotate(-2.0949049564529885) scale(0.6)"><path d="M-46,0 C-54,-30 -52,-70 -40,-92 L-22,-102 L-30,-116 Q0,-104 30,-116 L22,-102 L40,-92 C52,-70 54,-30 46,0 Q0,12 -46,0 Z" fill="url(#sack)" stroke="#a68545" stroke-width="2"/><path d="M-30,-116 Q0,-96 30,-116" stroke="#8a6b2f" stroke-width="3" fill="none"/><path d="M-22,-102 Q0,-92 22,-102" stroke="#a68545" stroke-width="2" fill="none" stroke-dasharray="3 4"/></g><g transform="translate(1477.6,276.0) rotate(0.9056068382391222) scale(0.6)"><path d="M-46,0 C-54,-30 -52,-70 -40,-92 L-22,-102 L-30,-116 Q0,-104 30,-116 L22,-102 L40,-92 C52,-70 54,-30 46,0 Q0,12 -46,0 Z" fill="url(#sack)" stroke="#a68545" stroke-width="2"/><path d="M-30,-116 Q0,-96 30,-116" stroke="#8a6b2f" stroke-width="3" fill="none"/><path d="M-22,-102 Q0,-92 22,-102" stroke="#a68545" stroke-width="2" fill="none" stroke-dasharray="3 4"/><rect x="-26" y="-74" width="52" height="32" rx="4" fill="#fffaf0" opacity=".92"/><path d="M-17,-50 L-10,-66 L0,-52 L10,-66 L17,-50" stroke="#006B3F" stroke-width="3.5" fill="none" stroke-linejoin="round"/><rect x="-26" y="-45" width="52" height="3" fill="#CE1126"/></g><g transform="translate(1532.8,276.0) rotate(-2.5653822799947434) scale(0.6)"><path d="M-46,0 C-54,-30 -52,-70 -40,-92 L-22,-102 L-30,-116 Q0,-104 30,-116 L22,-102 L40,-92 C52,-70 54,-30 46,0 Q0,12 -46,0 Z" fill="url(#sack)" stroke="#a68545" stroke-width="2"/><path d="M-30,-116 Q0,-96 30,-116" stroke="#8a6b2f" stroke-width="3" fill="none"/><path d="M-22,-102 Q0,-92 22,-102" stroke="#a68545" stroke-width="2" fill="none" stroke-dasharray="3 4"/></g><g transform="translate(1394.8,238.8) rotate(0.21529202584013518) scale(0.6)"><path d="M-46,0 C-54,-30 -52,-70 -40,-92 L-22,-102 L-30,-116 Q0,-104 30,-116 L22,-102 L40,-92 C52,-70 54,-30 46,0 Q0,12 -46,0 Z" fill="url(#sack)" stroke="#a68545" stroke-width="2"/><path d="M-30,-116 Q0,-96 30,-116" stroke="#8a6b2f" stroke-width="3" fill="none"/><path d="M-22,-102 Q0,-92 22,-102" stroke="#a68545" stroke-width="2" fill="none" stroke-dasharray="3 4"/></g><g transform="translate(1450.0,238.8) rotate(-0.8058664985244866) scale(0.6)"><path d="M-46,0 C-54,-30 -52,-70 -40,-92 L-22,-102 L-30,-116 Q0,-104 30,-116 L22,-102 L40,-92 C52,-70 54,-30 46,0 Q0,12 -46,0 Z" fill="url(#sack)" stroke="#a68545" stroke-width="2"/><path d="M-30,-116 Q0,-96 30,-116" stroke="#8a6b2f" stroke-width="3" fill="none"/><path d="M-22,-102 Q0,-92 22,-102" stroke="#a68545" stroke-width="2" fill="none" stroke-dasharray="3 4"/><rect x="-26" y="-74" width="52" height="32" rx="4" fill="#fffaf0" opacity=".92"/><path d="M-17,-50 L-10,-66 L0,-52 L10,-66 L17,-50" stroke="#006B3F" stroke-width="3.5" fill="none" stroke-linejoin="round"/><rect x="-26" y="-45" width="52" height="3" fill="#CE1126"/></g><g transform="translate(1505.2,238.8) rotate(-2.652006451351759) scale(0.6)"><path d="M-46,0 C-54,-30 -52,-70 -40,-92 L-22,-102 L-30,-116 Q0,-104 30,-116 L22,-102 L40,-92 C52,-70 54,-30 46,0 Q0,12 -46,0 Z" fill="url(#sack)" stroke="#a68545" stroke-width="2"/><path d="M-30,-116 Q0,-96 30,-116" stroke="#8a6b2f" stroke-width="3" fill="none"/><path d="M-22,-102 Q0,-92 22,-102" stroke="#a68545" stroke-width="2" fill="none" stroke-dasharray="3 4"/></g><g transform="translate(1422.4,201.60000000000002) rotate(0.04461439913652132) scale(0.6)"><path d="M-46,0 C-54,-30 -52,-70 -40,-92 L-22,-102 L-30,-116 Q0,-104 30,-116 L22,-102 L40,-92 C52,-70 54,-30 46,0 Q0,12 -46,0 Z" fill="url(#sack)" stroke="#a68545" stroke-width="2"/><path d="M-30,-116 Q0,-96 30,-116" stroke="#8a6b2f" stroke-width="3" fill="none"/><path d="M-22,-102 Q0,-92 22,-102" stroke="#a68545" stroke-width="2" fill="none" stroke-dasharray="3 4"/><rect x="-26" y="-74" width="52" height="32" rx="4" fill="#fffaf0" opacity=".92"/><path d="M-17,-50 L-10,-66 L0,-52 L10,-66 L17,-50" stroke="#006B3F" stroke-width="3.5" fill="none" stroke-linejoin="round"/><rect x="-26" y="-45" width="52" height="3" fill="#CE1126"/></g><g transform="translate(1477.6,201.60000000000002) rotate(-2.7750260493480905) scale(0.6)"><path d="M-46,0 C-54,-30 -52,-70 -40,-92 L-22,-102 L-30,-116 Q0,-104 30,-116 L22,-102 L40,-92 C52,-70 54,-30 46,0 Q0,12 -46,0 Z" fill="url(#sack)" stroke="#a68545" stroke-width="2"/><path d="M-30,-116 Q0,-96 30,-116" stroke="#8a6b2f" stroke-width="3" fill="none"/><path d="M-22,-102 Q0,-92 22,-102" stroke="#a68545" stroke-width="2" fill="none" stroke-dasharray="3 4"/></g><g transform="translate(749.4,276.0) rotate(-0.2219558531098711) scale(0.55)"><path d="M-46,0 C-54,-30 -52,-70 -40,-92 L-22,-102 L-30,-116 Q0,-104 30,-116 L22,-102 L40,-92 C52,-70 54,-30 46,0 Q0,12 -46,0 Z" fill="url(#sack)" stroke="#a68545" stroke-width="2"/><path d="M-30,-116 Q0,-96 30,-116" stroke="#8a6b2f" stroke-width="3" fill="none"/><path d="M-22,-102 Q0,-92 22,-102" stroke="#a68545" stroke-width="2" fill="none" stroke-dasharray="3 4"/><rect x="-26" y="-74" width="52" height="32" rx="4" fill="#fffaf0" opacity=".92"/><path d="M-17,-50 L-10,-66 L0,-52 L10,-66 L17,-50" stroke="#006B3F" stroke-width="3.5" fill="none" stroke-linejoin="round"/><rect x="-26" y="-45" width="52" height="3" fill="#CE1126"/></g><g transform="translate(800.0,276.0) rotate(-0.760128411629748) scale(0.55)"><path d="M-46,0 C-54,-30 -52,-70 -40,-92 L-22,-102 L-30,-116 Q0,-104 30,-116 L22,-102 L40,-92 C52,-70 54,-30 46,0 Q0,12 -46,0 Z" fill="url(#sack)" stroke="#a68545" stroke-width="2"/><path d="M-30,-116 Q0,-96 30,-116" stroke="#8a6b2f" stroke-width="3" fill="none"/><path d="M-22,-102 Q0,-92 22,-102" stroke="#a68545" stroke-width="2" fill="none" stroke-dasharray="3 4"/></g><g transform="translate(850.6,276.0) rotate(-2.1687635249132686) scale(0.55)"><path d="M-46,0 C-54,-30 -52,-70 -40,-92 L-22,-102 L-30,-116 Q0,-104 30,-116 L22,-102 L40,-92 C52,-70 54,-30 46,0 Q0,12 -46,0 Z" fill="url(#sack)" stroke="#a68545" stroke-width="2"/><path d="M-30,-116 Q0,-96 30,-116" stroke="#8a6b2f" stroke-width="3" fill="none"/><path d="M-22,-102 Q0,-92 22,-102" stroke="#a68545" stroke-width="2" fill="none" stroke-dasharray="3 4"/><rect x="-26" y="-74" width="52" height="32" rx="4" fill="#fffaf0" opacity=".92"/><path d="M-17,-50 L-10,-66 L0,-52 L10,-66 L17,-50" stroke="#006B3F" stroke-width="3.5" fill="none" stroke-linejoin="round"/><rect x="-26" y="-45" width="52" height="3" fill="#CE1126"/></g><g transform="translate(774.7,241.9) rotate(2.1993710999180482) scale(0.55)"><path d="M-46,0 C-54,-30 -52,-70 -40,-92 L-22,-102 L-30,-116 Q0,-104 30,-116 L22,-102 L40,-92 C52,-70 54,-30 46,0 Q0,12 -46,0 Z" fill="url(#sack)" stroke="#a68545" stroke-width="2"/><path d="M-30,-116 Q0,-96 30,-116" stroke="#8a6b2f" stroke-width="3" fill="none"/><path d="M-22,-102 Q0,-92 22,-102" stroke="#a68545" stroke-width="2" fill="none" stroke-dasharray="3 4"/></g><g transform="translate(825.3,241.9) rotate(-2.96138967551326) scale(0.55)"><path d="M-46,0 C-54,-30 -52,-70 -40,-92 L-22,-102 L-30,-116 Q0,-104 30,-116 L22,-102 L40,-92 C52,-70 54,-30 46,0 Q0,12 -46,0 Z" fill="url(#sack)" stroke="#a68545" stroke-width="2"/><path d="M-30,-116 Q0,-96 30,-116" stroke="#8a6b2f" stroke-width="3" fill="none"/><path d="M-22,-102 Q0,-92 22,-102" stroke="#a68545" stroke-width="2" fill="none" stroke-dasharray="3 4"/><rect x="-26" y="-74" width="52" height="32" rx="4" fill="#fffaf0" opacity=".92"/><path d="M-17,-50 L-10,-66 L0,-52 L10,-66 L17,-50" stroke="#006B3F" stroke-width="3.5" fill="none" stroke-linejoin="round"/><rect x="-26" y="-45" width="52" height="3" fill="#CE1126"/></g><g transform="translate(150,120) scale(0.85)" opacity="0.2"><path d="M0,56 L0,-10 M0,-10 L-38,-44 M0,-10 L38,-44 M-38,-44 C-38,-66 -14,-66 -14,-44 M38,-44 C38,-66 14,-66 14,-44 M-20,56 L20,56" stroke="#FCD116" stroke-width="5" fill="none" stroke-linecap="round" stroke-linejoin="round"/></g><g transform="translate(280,120) scale(0.85)" opacity="0.2"><path d="M0,56 L0,-56" stroke="#FCD116" stroke-width="5" fill="none" stroke-linecap="round" stroke-linejoin="round"/><path d="M0,40 L-30,22 M0,40 L30,22" stroke="#FCD116" stroke-width="5" fill="none" stroke-linecap="round" stroke-linejoin="round"/><path d="M0,20 L-30,2 M0,20 L30,2" stroke="#FCD116" stroke-width="5" fill="none" stroke-linecap="round" stroke-linejoin="round"/><path d="M0,0 L-30,-18 M0,0 L30,-18" stroke="#FCD116" stroke-width="5" fill="none" stroke-linecap="round" stroke-linejoin="round"/><path d="M0,-20 L-30,-38 M0,-20 L30,-38" stroke="#FCD116" stroke-width="5" fill="none" stroke-linecap="round" stroke-linejoin="round"/><path d="M0,-40 L-30,-58 M0,-40 L30,-58" stroke="#FCD116" stroke-width="5" fill="none" stroke-linecap="round" stroke-linejoin="round"/></g><defs><linearGradient id="shade" x1="0" y1="0" x2="1" y2="0"><stop offset="0" stop-color="#06210f" stop-opacity=".78"/><stop offset=".42" stop-color="#06210f" stop-opacity=".38"/><stop offset=".7" stop-color="#06210f" stop-opacity="0"/></linearGradient></defs><rect width="1600" height="320" fill="url(#shade)"/><g><rect x="0" y="285" width="1600" height="35" fill="url(#kente)"/><rect x="0" y="285" width="1600" height="3" fill="#000" opacity=".35"/></g></svg>